<svg width="71" height="35" viewBox="0 0 71 35" fill="none" xmlns="http://www.w3.org/2000/svg">
<path d="M36.084 29.824V34.72H18.276H17.748C7.812 34.864 0.516 26.992 0.66 17.68C0.516 8.368 7.812 0.495999 17.748 0.639997C27.684 0.495999 35.028 8.368 34.884 17.68C34.98 22.384 33.108 26.704 30.036 29.824H36.084ZM6.036 17.68C6.036 24.544 10.644 29.776 17.748 29.776C24.948 29.776 29.46 24.544 29.46 17.68C29.46 10.864 24.948 5.536 17.748 5.536C10.644 5.536 6.036 10.864 6.036 17.68ZM53.1593 1.408C64.3433 1.408 70.8713 8.176 70.8713 17.68C70.8713 27.136 63.9593 34 53.1593 34H41.3513V1.408H53.1593ZM52.7753 29.056C60.3113 29.056 65.2073 25.504 65.4473 17.68C65.4473 10.624 61.2233 6.304 52.7273 6.304H46.5833V29.056H52.7753Z" fill="#FAFBFC"/>
</svg>
